# xmcd
#
# Track frame offsets: 
#        150
#        49342
#        84557
#        118900
#        133295
#        158420
#        193247
#        230127
#        272035
#        303087
#
# Disc length: 4279 seconds
#
# Revision: 3
# Processed by: cddbd v1.5.2PL0 Copyright (c) Steve Scherf et al.
# Submitted via: ExactAudioCopy v1.0b3
#
DISCID=8e10b50a
DTITLE=Norris Turney Quartet - Big, Sweet n' Blue
DYEAR=1993
DGENRE=Jazz
TTITLE0=Blues for Edward
TTITLE1=Here's That Rainy Day
TTITLE2=Blues in B
TTITLE3=Checkered Hat
TTITLE4=I Can't Give You Anything but Love
TTITLE5=Streets of Dreams
TTITLE6=In a Mellow Tone
TTITLE7=Blood Count
TTITLE8=I've Never Been in Love Before
TTITLE9=Come Sunday
EXTD=
EXTT0=
EXTT1=
EXTT2=
EXTT3=
EXTT4=
EXTT5=
EXTT6=
EXTT7=
EXTT8=
EXTT9=
PLAYORDER=
